<svg width="auto" height="100%" viewBox="0 0 250 250" fill="none" xmlns="http://www.w3.org/2000/svg">
<mask id="mask0_27_201" style="mask-type:alpha" maskUnits="userSpaceOnUse" x="0" y="0" width="250" height="250">
<circle cx="125" cy="125" r="125" fill="#36393E"/>
</mask>
<g mask="url(#mask0_27_201)">
<circle cx="125" cy="125" r="125" fill="#4A4E53"/>
<path d="M144.727 212.545H217.599C219.256 212.545 220.599 213.888 220.599 215.545V255.912H141.727V215.545C141.727 213.888 143.07 212.545 144.727 212.545Z" fill="#222426" stroke="#4A4E53" stroke-width="2"/>
<path d="M20.1292 179.327H93.0012C94.6581 179.327 96.0012 180.67 96.0012 182.327V244.392H17.1292V182.327C17.1292 180.67 18.4723 179.327 20.1292 179.327Z" fill="#222426" stroke="#4A4E53" stroke-width="2"/>
<path d="M44.1304 163.442H111.085C112.742 163.442 114.085 164.786 114.085 166.442V291.627H41.1304V166.442C41.1304 164.786 42.4735 163.442 44.1304 163.442Z" fill="#222426" stroke="#4A4E53" stroke-width="2"/>
<path d="M79.6353 189.085H152.507C154.164 189.085 155.507 190.428 155.507 192.085V291.627H76.6353V192.085C76.6353 190.428 77.9784 189.085 79.6353 189.085Z" fill="#222426" stroke="#4A4E53" stroke-width="2"/>
<path d="M199 157L70 82.5L31.6205 223.262L84.1013 252.88L199 157Z" fill="#FBD259" fill-opacity="0.4" style="mix-blend-mode:lighten"/>
<circle cx="146.892" cy="98.2953" r="78.558" fill="#FBD259"/>
<path fill-rule="evenodd" clip-rule="evenodd" d="M162.653 44.952L189.553 71.7751V124.155C191.325 127.038 192.285 130.378 192.285 133.817C192.285 138.709 190.342 143.4 186.884 146.86C183.424 150.318 178.733 152.261 173.841 152.261C170.659 152.261 167.561 151.439 164.833 149.912H121.719C113.998 149.912 107.684 143.616 107.684 135.917V58.9467C107.684 51.2478 113.998 44.952 121.719 44.952H162.653ZM183.705 118.232C180.777 116.379 177.361 115.373 173.841 115.373C168.95 115.373 164.259 117.316 160.799 120.774C157.34 124.234 155.397 128.925 155.397 133.817C155.397 137.499 156.498 141.066 158.516 144.081H121.719C117.159 144.081 113.532 140.464 113.532 135.917V58.9467C113.532 54.4003 117.159 50.7831 121.719 50.7831H158.094L158.56 60.2314C158.56 69.5611 166.162 77.0226 175.519 77.0226H183.706L183.705 118.232ZM175.518 71.192H180.781L164.174 54.6326L164.407 60.1129C164.407 66.1763 169.437 71.192 175.518 71.192ZM166.631 134.303C165.977 133.654 164.92 133.654 164.266 134.303C163.949 134.619 163.771 135.046 163.771 135.494C163.771 135.941 163.949 136.37 164.266 136.684L169.297 141.715C169.951 142.366 171.007 142.366 171.661 141.715H171.663L182.561 130.816C183.13 130.15 183.092 129.159 182.473 128.54C181.854 127.921 180.862 127.881 180.197 128.452L170.488 138.161L166.631 134.303Z" fill="#222426"/>
<circle cx="173.842" cy="133.817" r="19.444" stroke="#FBD259" stroke-width="2"/>
</g>
</svg>
