<svg id="Layer_1" data-name="Layer 1" xmlns="http://www.w3.org/2000/svg" viewBox="0 0 158.85 93.47"><defs><style>.cls-1,.cls-2{fill:#222426;}.cls-1{stroke:#4a4e53;stroke-width:2px;}.cls-3{fill:#4a4e53;}</style></defs><path class="cls-1" d="M158.85,92.47H97V52.1a3,3,0,0,1,3-3h58.89" transform="translate(0 0)"/><path class="cls-2" d="M1.09,91.39v-72A2.23,2.23,0,0,1,3,17H75.87a2.24,2.24,0,0,1,1.92,2.45v72Z" transform="translate(0 0)"/><path class="cls-3" d="M75.87,18.05c.39,0,.83.6.83,1.37V90.3H2.17V19.42c0-.77.45-1.37.83-1.37H75.87m0-2.17H3a3.3,3.3,0,0,0-3,3.54V92.47H78.87v-73a3.3,3.3,0,0,0-3-3.54Z" transform="translate(0 0)"/><path class="cls-2" d="M24.85,91.62V2.16c0-.62.88-1.31,2.15-1.31H94c1.26,0,2.15.69,2.15,1.31V91.62Z" transform="translate(0 0)"/><path class="cls-3" d="M94,1.7a1.68,1.68,0,0,1,1.3.46V90.77H25.7V2.19A1.55,1.55,0,0,1,27,1.7H94M94,0H27c-1.66,0-3,1-3,2.16V92.47H97V2.16C97,1,95.61,0,94,0Z" transform="translate(0 0)"/><path class="cls-2" d="M60.51,91.47V28.64a2,2,0,0,1,2-2h72.87a2,2,0,0,1,2,2V91.47Z" transform="translate(0 0)"/><path class="cls-3" d="M135.38,27.64a1,1,0,0,1,1,1V90.47H61.51V28.64a1,1,0,0,1,1-1h72.87m0-2H62.51a3,3,0,0,0-3,3V92.47h78.87V28.64a3,3,0,0,0-3-3Z" transform="translate(0 0)"/></svg>