<svg width="1213" height="110" viewBox="0 0 1213 110" fill="none" xmlns="http://www.w3.org/2000/svg">
<mask id="path-1-inside-1_54_63" fill="white">
<path d="M126.034 69C126.034 66.7909 127.825 65 130.034 65H202.034C204.243 65 206.034 66.7909 206.034 69V110H126.034V69Z"/>
</mask>
<path d="M126.034 69C126.034 66.7909 127.825 65 130.034 65H202.034C204.243 65 206.034 66.7909 206.034 69V110H126.034V69Z" fill="#222426"/>
<path d="M124.034 69C124.034 65.6863 126.72 63 130.034 63H202.034C205.348 63 208.034 65.6863 208.034 69H204.034C204.034 67.8954 203.139 67 202.034 67H130.034C128.93 67 128.034 67.8954 128.034 69H124.034ZM206.034 110H126.034H206.034ZM124.034 110V69C124.034 65.6863 126.72 63 130.034 63V67C128.93 67 128.034 67.8954 128.034 69V110H124.034ZM202.034 63C205.348 63 208.034 65.6863 208.034 69V110H204.034V69C204.034 67.8954 203.139 67 202.034 67V63Z" fill="#4A4E53" mask="url(#path-1-inside-1_54_63)"/>
<mask id="path-3-inside-2_54_63" fill="white">
<path d="M774 61C774 58.7909 775.791 57 778 57H850C852.209 57 854 58.7909 854 61V110H774V61Z"/>
</mask>
<path d="M774 61C774 58.7909 775.791 57 778 57H850C852.209 57 854 58.7909 854 61V110H774V61Z" fill="#222426"/>
<path d="M772 61C772 57.6863 774.686 55 778 55H850C853.314 55 856 57.6863 856 61H852C852 59.8954 851.105 59 850 59H778C776.895 59 776 59.8954 776 61H772ZM854 110H774H854ZM772 110V61C772 57.6863 774.686 55 778 55V59C776.895 59 776 59.8954 776 61V110H772ZM850 55C853.314 55 856 57.6863 856 61V110H852V61C852 59.8954 851.105 59 850 59V55Z" fill="#4A4E53" mask="url(#path-3-inside-2_54_63)"/>
<mask id="path-5-inside-3_54_63" fill="white">
<path d="M194 61C194 58.7909 195.791 57 198 57H270C272.209 57 274 58.7909 274 61V110H194V61Z"/>
</mask>
<path d="M194 61C194 58.7909 195.791 57 198 57H270C272.209 57 274 58.7909 274 61V110H194V61Z" fill="#222426"/>
<path d="M192 61C192 57.6863 194.686 55 198 55H270C273.314 55 276 57.6863 276 61H272C272 59.8954 271.105 59 270 59H198C196.895 59 196 59.8954 196 61H192ZM274 110H194H274ZM192 110V61C192 57.6863 194.686 55 198 55V59C196.895 59 196 59.8954 196 61V110H192ZM270 55C273.314 55 276 57.6863 276 61V110H272V61C272 59.8954 271.105 59 270 59V55Z" fill="#4A4E53" mask="url(#path-5-inside-3_54_63)"/>
<mask id="path-7-inside-4_54_63" fill="white">
<path d="M0.936035 32H77.936C80.1452 32 81.936 33.7909 81.936 36V110H0.936035V32Z"/>
</mask>
<path d="M0.936035 32H77.936C80.1452 32 81.936 33.7909 81.936 36V110H0.936035V32Z" fill="#222426"/>
<path d="M0.936035 30H77.936C81.2497 30 83.936 32.6863 83.936 36H79.936C79.936 34.8954 79.0406 34 77.936 34H0.936035V30ZM81.936 110H0.936035H81.936ZM0.936035 110V32V110ZM77.936 30C81.2497 30 83.936 32.6863 83.936 36V110H79.936V36C79.936 34.8954 79.0406 34 77.936 34V30Z" fill="#4A4E53" mask="url(#path-7-inside-4_54_63)"/>
<mask id="path-9-inside-5_54_63" fill="white">
<path d="M1132 36C1132 33.7909 1133.79 32 1136 32H1213V110H1132V36Z"/>
</mask>
<path d="M1132 36C1132 33.7909 1133.79 32 1136 32H1213V110H1132V36Z" fill="#222426"/>
<path d="M1130 36C1130 32.6863 1132.69 30 1136 30H1213V34H1136C1134.9 34 1134 34.8954 1134 36H1130ZM1213 110H1132H1213ZM1130 110V36C1130 32.6863 1132.69 30 1136 30V34C1134.9 34 1134 34.8954 1134 36V110H1130ZM1213 32V110V32Z" fill="#4A4E53" mask="url(#path-9-inside-5_54_63)"/>
<mask id="path-11-inside-6_54_63" fill="white">
<path d="M999 28C999 25.7909 1000.79 24 1003 24H1076C1078.21 24 1080 25.7909 1080 28V110H999V28Z"/>
</mask>
<path d="M999 28C999 25.7909 1000.79 24 1003 24H1076C1078.21 24 1080 25.7909 1080 28V110H999V28Z" fill="#222426"/>
<path d="M997 28C997 24.6863 999.686 22 1003 22H1076C1079.31 22 1082 24.6863 1082 28H1078C1078 26.8954 1077.1 26 1076 26H1003C1001.9 26 1001 26.8954 1001 28H997ZM1080 110H999H1080ZM997 110V28C997 24.6863 999.686 22 1003 22V26C1001.9 26 1001 26.8954 1001 28V110H997ZM1076 22C1079.31 22 1082 24.6863 1082 28V110H1078V28C1078 26.8954 1077.1 26 1076 26V22Z" fill="#4A4E53" mask="url(#path-11-inside-6_54_63)"/>
<mask id="path-13-inside-7_54_63" fill="white">
<path d="M377 36C377 33.7909 378.791 32 381 32H454C456.209 32 458 33.7909 458 36V110H377V36Z"/>
</mask>
<path d="M377 36C377 33.7909 378.791 32 381 32H454C456.209 32 458 33.7909 458 36V110H377V36Z" fill="#222426"/>
<path d="M375 36C375 32.6863 377.686 30 381 30H454C457.314 30 460 32.6863 460 36H456C456 34.8954 455.105 34 454 34H381C379.895 34 379 34.8954 379 36H375ZM458 110H377H458ZM375 110V36C375 32.6863 377.686 30 381 30V34C379.895 34 379 34.8954 379 36V110H375ZM454 30C457.314 30 460 32.6863 460 36V110H456V36C456 34.8954 455.105 34 454 34V30Z" fill="#4A4E53" mask="url(#path-13-inside-7_54_63)"/>
<mask id="path-15-inside-8_54_63" fill="white">
<path d="M705 36C705 33.7909 706.791 32 709 32H782C784.209 32 786 33.7909 786 36V110H705V36Z"/>
</mask>
<path d="M705 36C705 33.7909 706.791 32 709 32H782C784.209 32 786 33.7909 786 36V110H705V36Z" fill="#222426"/>
<path d="M703 36C703 32.6863 705.686 30 709 30H782C785.314 30 788 32.6863 788 36H784C784 34.8954 783.105 34 782 34H709C707.895 34 707 34.8954 707 36H703ZM786 110H705H786ZM703 110V36C703 32.6863 705.686 30 709 30V34C707.895 34 707 34.8954 707 36V110H703ZM782 30C785.314 30 788 32.6863 788 36V110H784V36C784 34.8954 783.105 34 782 34V30Z" fill="#4A4E53" mask="url(#path-15-inside-8_54_63)"/>
<mask id="path-17-inside-9_54_63" fill="white">
<path d="M24.9785 20C24.9785 17.7909 26.7694 16 28.9785 16H95.9785C98.1877 16 99.9785 17.7909 99.9785 20V110H24.9785V20Z"/>
</mask>
<path d="M24.9785 20C24.9785 17.7909 26.7694 16 28.9785 16H95.9785C98.1877 16 99.9785 17.7909 99.9785 20V110H24.9785V20Z" fill="#222426"/>
<path d="M22.9785 20C22.9785 16.6863 25.6648 14 28.9785 14H95.9785C99.2922 14 101.979 16.6863 101.979 20H97.9785C97.9785 18.8954 97.0831 18 95.9785 18H28.9785C27.8739 18 26.9785 18.8954 26.9785 20H22.9785ZM99.9785 110H24.9785H99.9785ZM22.9785 110V20C22.9785 16.6863 25.6648 14 28.9785 14V18C27.8739 18 26.9785 18.8954 26.9785 20V110H22.9785ZM95.9785 14C99.2922 14 101.979 16.6863 101.979 20V110H97.9785V20C97.9785 18.8954 97.0831 18 95.9785 18V14Z" fill="#4A4E53" mask="url(#path-17-inside-9_54_63)"/>
<mask id="path-19-inside-10_54_63" fill="white">
<path d="M466 20C466 17.7909 467.791 16 470 16H537C539.209 16 541 17.7909 541 20V110H466V20Z"/>
</mask>
<path d="M466 20C466 17.7909 467.791 16 470 16H537C539.209 16 541 17.7909 541 20V110H466V20Z" fill="#222426"/>
<path d="M464 20C464 16.6863 466.686 14 470 14H537C540.314 14 543 16.6863 543 20H539C539 18.8954 538.105 18 537 18H470C468.895 18 468 18.8954 468 20H464ZM541 110H466H541ZM464 110V20C464 16.6863 466.686 14 470 14V18C468.895 18 468 18.8954 468 20V110H464ZM537 14C540.314 14 543 16.6863 543 20V110H539V20C539 18.8954 538.105 18 537 18V14Z" fill="#4A4E53" mask="url(#path-19-inside-10_54_63)"/>
<mask id="path-21-inside-11_54_63" fill="white">
<path d="M918 42C918 39.7909 919.791 38 922 38H1018C1020.21 38 1022 39.7909 1022 42V110H918V42Z"/>
</mask>
<path d="M918 42C918 39.7909 919.791 38 922 38H1018C1020.21 38 1022 39.7909 1022 42V110H918V42Z" fill="#222426"/>
<path d="M916 42C916 38.6863 918.686 36 922 36H1018C1021.31 36 1024 38.6863 1024 42H1020C1020 40.8954 1019.1 40 1018 40H922C920.895 40 920 40.8954 920 42H916ZM1022 110H918H1022ZM916 110V42C916 38.6863 918.686 36 922 36V40C920.895 40 920 40.8954 920 42V110H916ZM1018 36C1021.31 36 1024 38.6863 1024 42V110H1020V42C1020 40.8954 1019.1 40 1018 40V36Z" fill="#4A4E53" mask="url(#path-21-inside-11_54_63)"/>
<mask id="path-23-inside-12_54_63" fill="white">
<path d="M176.989 19C176.989 16.7909 178.78 15 180.989 15H207.989C210.198 15 211.989 16.7909 211.989 19V110H176.989V19Z"/>
</mask>
<path d="M176.989 19C176.989 16.7909 178.78 15 180.989 15H207.989C210.198 15 211.989 16.7909 211.989 19V110H176.989V19Z" fill="#222426"/>
<path d="M174.989 19C174.989 15.6863 177.675 13 180.989 13H207.989C211.302 13 213.989 15.6863 213.989 19H209.989C209.989 17.8954 209.093 17 207.989 17H180.989C179.884 17 178.989 17.8954 178.989 19H174.989ZM211.989 110H176.989H211.989ZM174.989 110V19C174.989 15.6863 177.675 13 180.989 13V17C179.884 17 178.989 17.8954 178.989 19V110H174.989ZM207.989 13C211.302 13 213.989 15.6863 213.989 19V110H209.989V19C209.989 17.8954 209.093 17 207.989 17V13Z" fill="#4A4E53" mask="url(#path-23-inside-12_54_63)"/>
<mask id="path-25-inside-13_54_63" fill="white">
<path d="M822.989 19C822.989 16.7909 824.78 15 826.989 15H853.989C856.198 15 857.989 16.7909 857.989 19V110H822.989V19Z"/>
</mask>
<path d="M822.989 19C822.989 16.7909 824.78 15 826.989 15H853.989C856.198 15 857.989 16.7909 857.989 19V110H822.989V19Z" fill="#222426"/>
<path d="M820.989 19C820.989 15.6863 823.675 13 826.989 13H853.989C857.302 13 859.989 15.6863 859.989 19H855.989C855.989 17.8954 855.093 17 853.989 17H826.989C825.884 17 824.989 17.8954 824.989 19H820.989ZM857.989 110H822.989H857.989ZM820.989 110V19C820.989 15.6863 823.675 13 826.989 13V17C825.884 17 824.989 17.8954 824.989 19V110H820.989ZM853.989 13C857.302 13 859.989 15.6863 859.989 19V110H855.989V19C855.989 17.8954 855.093 17 853.989 17V13Z" fill="#4A4E53" mask="url(#path-25-inside-13_54_63)"/>
<mask id="path-27-inside-14_54_63" fill="white">
<path d="M657.989 19C657.989 16.7909 659.78 15 661.989 15H688.989C691.198 15 692.989 16.7909 692.989 19V110H657.989V19Z"/>
</mask>
<path d="M657.989 19C657.989 16.7909 659.78 15 661.989 15H688.989C691.198 15 692.989 16.7909 692.989 19V110H657.989V19Z" fill="#222426"/>
<path d="M655.989 19C655.989 15.6863 658.675 13 661.989 13H688.989C692.302 13 694.989 15.6863 694.989 19H690.989C690.989 17.8954 690.093 17 688.989 17H661.989C660.884 17 659.989 17.8954 659.989 19H655.989ZM692.989 110H657.989H692.989ZM655.989 110V19C655.989 15.6863 658.675 13 661.989 13V17C660.884 17 659.989 17.8954 659.989 19V110H655.989ZM688.989 13C692.302 13 694.989 15.6863 694.989 19V110H690.989V19C690.989 17.8954 690.093 17 688.989 17V13Z" fill="#4A4E53" mask="url(#path-27-inside-14_54_63)"/>
<mask id="path-29-inside-15_54_63" fill="white">
<path d="M198.989 13C198.989 10.7909 200.78 9 202.989 9H229.989C232.198 9 233.989 10.7909 233.989 13V110H198.989V13Z"/>
</mask>
<path d="M198.989 13C198.989 10.7909 200.78 9 202.989 9H229.989C232.198 9 233.989 10.7909 233.989 13V110H198.989V13Z" fill="#222426"/>
<path d="M196.989 13C196.989 9.68629 199.675 7 202.989 7H229.989C233.302 7 235.989 9.68629 235.989 13H231.989C231.989 11.8954 231.093 11 229.989 11H202.989C201.884 11 200.989 11.8954 200.989 13H196.989ZM233.989 110H198.989H233.989ZM196.989 110V13C196.989 9.68629 199.675 7 202.989 7V11C201.884 11 200.989 11.8954 200.989 13V110H196.989ZM229.989 7C233.302 7 235.989 9.68629 235.989 13V110H231.989V13C231.989 11.8954 231.093 11 229.989 11V7Z" fill="#4A4E53" mask="url(#path-29-inside-15_54_63)"/>
<mask id="path-31-inside-16_54_63" fill="white">
<path d="M349 4C349 1.79086 350.791 0 353 0H380C382.209 0 384 1.79086 384 4V110H349V4Z"/>
</mask>
<path d="M349 4C349 1.79086 350.791 0 353 0H380C382.209 0 384 1.79086 384 4V110H349V4Z" fill="#222426"/>
<path d="M347 4C347 0.686292 349.686 -2 353 -2H380C383.314 -2 386 0.686292 386 4H382C382 2.89543 381.105 2 380 2H353C351.895 2 351 2.89543 351 4H347ZM384 110H349H384ZM347 110V4C347 0.686292 349.686 -2 353 -2V2C351.895 2 351 2.89543 351 4V110H347ZM380 -2C383.314 -2 386 0.686292 386 4V110H382V4C382 2.89543 381.105 2 380 2V-2Z" fill="#4A4E53" mask="url(#path-31-inside-16_54_63)"/>
<mask id="path-33-inside-17_54_63" fill="white">
<path d="M728 4C728 1.79086 729.791 0 732 0H759C761.209 0 763 1.79086 763 4V110H728V4Z"/>
</mask>
<path d="M728 4C728 1.79086 729.791 0 732 0H759C761.209 0 763 1.79086 763 4V110H728V4Z" fill="#222426"/>
<path d="M726 4C726 0.686292 728.686 -2 732 -2H759C762.314 -2 765 0.686292 765 4H761C761 2.89543 760.105 2 759 2H732C730.895 2 730 2.89543 730 4H726ZM763 110H728H763ZM726 110V4C726 0.686292 728.686 -2 732 -2V2C730.895 2 730 2.89543 730 4V110H726ZM759 -2C762.314 -2 765 0.686292 765 4V110H761V4C761 2.89543 760.105 2 759 2V-2Z" fill="#4A4E53" mask="url(#path-33-inside-17_54_63)"/>
<mask id="path-35-inside-18_54_63" fill="white">
<path d="M60.9421 46C60.9421 43.7909 62.733 42 64.9421 42H136.942C139.151 42 140.942 43.7909 140.942 46V110H60.9421V46Z"/>
</mask>
<path d="M60.9421 46C60.9421 43.7909 62.733 42 64.9421 42H136.942C139.151 42 140.942 43.7909 140.942 46V110H60.9421V46Z" fill="#222426"/>
<path d="M58.9421 46C58.9421 42.6863 61.6284 40 64.9421 40H136.942C140.256 40 142.942 42.6863 142.942 46H138.942C138.942 44.8954 138.047 44 136.942 44H64.9421C63.8376 44 62.9421 44.8954 62.9421 46H58.9421ZM140.942 110H60.9421H140.942ZM58.9421 110V46C58.9421 42.6863 61.6284 40 64.9421 40V44C63.8376 44 62.9421 44.8954 62.9421 46V110H58.9421ZM136.942 40C140.256 40 142.942 42.6863 142.942 46V110H138.942V46C138.942 44.8954 138.047 44 136.942 44V40Z" fill="#4A4E53" mask="url(#path-35-inside-18_54_63)"/>
<mask id="path-37-inside-19_54_63" fill="white">
<path d="M1049.01 81C1049.01 78.7909 1050.8 77 1053.01 77H1125.01C1127.21 77 1129.01 78.7909 1129.01 81V110H1049.01V81Z"/>
</mask>
<path d="M1049.01 81C1049.01 78.7909 1050.8 77 1053.01 77H1125.01C1127.21 77 1129.01 78.7909 1129.01 81V110H1049.01V81Z" fill="#222426"/>
<path d="M1047.01 81C1047.01 77.6863 1049.69 75 1053.01 75H1125.01C1128.32 75 1131.01 77.6863 1131.01 81H1127.01C1127.01 79.8954 1126.11 79 1125.01 79H1053.01C1051.9 79 1051.01 79.8954 1051.01 81H1047.01ZM1129.01 110H1049.01H1129.01ZM1047.01 110V81C1047.01 77.6863 1049.69 75 1053.01 75V79C1051.9 79 1051.01 79.8954 1051.01 81V110H1047.01ZM1125.01 75C1128.32 75 1131.01 77.6863 1131.01 81V110H1127.01V81C1127.01 79.8954 1126.11 79 1125.01 79V75Z" fill="#4A4E53" mask="url(#path-37-inside-19_54_63)"/>
<mask id="path-39-inside-20_54_63" fill="white">
<path d="M491.964 46C491.964 43.7909 493.754 42 495.964 42H567.964C570.173 42 571.964 43.7909 571.964 46V110H491.964V46Z"/>
</mask>
<path d="M491.964 46C491.964 43.7909 493.754 42 495.964 42H567.964C570.173 42 571.964 43.7909 571.964 46V110H491.964V46Z" fill="#222426"/>
<path d="M489.964 46C489.964 42.6863 492.65 40 495.964 40H567.964C571.277 40 573.964 42.6863 573.964 46H569.964C569.964 44.8954 569.068 44 567.964 44H495.964C494.859 44 493.964 44.8954 493.964 46H489.964ZM571.964 110H491.964H571.964ZM489.964 110V46C489.964 42.6863 492.65 40 495.964 40V44C494.859 44 493.964 44.8954 493.964 46V110H489.964ZM567.964 40C571.277 40 573.964 42.6863 573.964 46V110H569.964V46C569.964 44.8954 569.068 44 567.964 44V40Z" fill="#4A4E53" mask="url(#path-39-inside-20_54_63)"/>
<mask id="path-41-inside-21_54_63" fill="white">
<path d="M266 31C266 28.7909 267.791 27 270 27H321C323.209 27 325 28.7909 325 31V110H266V31Z"/>
</mask>
<path d="M266 31C266 28.7909 267.791 27 270 27H321C323.209 27 325 28.7909 325 31V110H266V31Z" fill="#222426"/>
<path d="M264 31C264 27.6863 266.686 25 270 25H321C324.314 25 327 27.6863 327 31H323C323 29.8954 322.105 29 321 29H270C268.895 29 268 29.8954 268 31H264ZM325 110H266H325ZM264 110V31C264 27.6863 266.686 25 270 25V29C268.895 29 268 29.8954 268 31V110H264ZM321 25C324.314 25 327 27.6863 327 31V110H323V31C323 29.8954 322.105 29 321 29V25Z" fill="#4A4E53" mask="url(#path-41-inside-21_54_63)"/>
<mask id="path-43-inside-22_54_63" fill="white">
<path d="M562 31C562 28.7909 563.791 27 566 27H617C619.209 27 621 28.7909 621 31V110H562V31Z"/>
</mask>
<path d="M562 31C562 28.7909 563.791 27 566 27H617C619.209 27 621 28.7909 621 31V110H562V31Z" fill="#222426"/>
<path d="M560 31C560 27.6863 562.686 25 566 25H617C620.314 25 623 27.6863 623 31H619C619 29.8954 618.105 29 617 29H566C564.895 29 564 29.8954 564 31H560ZM621 110H562H621ZM560 110V31C560 27.6863 562.686 25 566 25V29C564.895 29 564 29.8954 564 31V110H560ZM617 25C620.314 25 623 27.6863 623 31V110H619V31C619 29.8954 618.105 29 617 29V25Z" fill="#4A4E53" mask="url(#path-43-inside-22_54_63)"/>
<mask id="path-45-inside-23_54_63" fill="white">
<path d="M687.021 31C687.021 28.7909 688.812 27 691.021 27H742.021C744.231 27 746.021 28.7909 746.021 31V110H687.021V31Z"/>
</mask>
<path d="M687.021 31C687.021 28.7909 688.812 27 691.021 27H742.021C744.231 27 746.021 28.7909 746.021 31V110H687.021V31Z" fill="#222426"/>
<path d="M685.021 31C685.021 27.6863 687.708 25 691.021 25H742.021C745.335 25 748.021 27.6863 748.021 31H744.021C744.021 29.8954 743.126 29 742.021 29H691.021C689.917 29 689.021 29.8954 689.021 31H685.021ZM746.021 110H687.021H746.021ZM685.021 110V31C685.021 27.6863 687.708 25 691.021 25V29C689.917 29 689.021 29.8954 689.021 31V110H685.021ZM742.021 25C745.335 25 748.021 27.6863 748.021 31V110H744.021V31C744.021 29.8954 743.126 29 742.021 29V25Z" fill="#4A4E53" mask="url(#path-45-inside-23_54_63)"/>
<mask id="path-47-inside-24_54_63" fill="white">
<path d="M194 61C194 58.7909 195.791 57 198 57H270C272.209 57 274 58.7909 274 61V110H194V61Z"/>
</mask>
<path d="M194 61C194 58.7909 195.791 57 198 57H270C272.209 57 274 58.7909 274 61V110H194V61Z" fill="#222426"/>
<path d="M192 61C192 57.6863 194.686 55 198 55H270C273.314 55 276 57.6863 276 61H272C272 59.8954 271.105 59 270 59H198C196.895 59 196 59.8954 196 61H192ZM274 110H194H274ZM192 110V61C192 57.6863 194.686 55 198 55V59C196.895 59 196 59.8954 196 61V110H192ZM270 55C273.314 55 276 57.6863 276 61V110H272V61C272 59.8954 271.105 59 270 59V55Z" fill="#4A4E53" mask="url(#path-47-inside-24_54_63)"/>
<mask id="path-49-inside-25_54_63" fill="white">
<path d="M840.022 61C840.022 58.7909 841.813 57 844.022 57H916.022C918.232 57 920.022 58.7909 920.022 61V110H840.022V61Z"/>
</mask>
<path d="M840.022 61C840.022 58.7909 841.813 57 844.022 57H916.022C918.232 57 920.022 58.7909 920.022 61V110H840.022V61Z" fill="#222426"/>
<path d="M838.022 61C838.022 57.6863 840.709 55 844.022 55H916.022C919.336 55 922.022 57.6863 922.022 61H918.022C918.022 59.8954 917.127 59 916.022 59H844.022C842.918 59 842.022 59.8954 842.022 61H838.022ZM920.022 110H840.022H920.022ZM838.022 110V61C838.022 57.6863 840.709 55 844.022 55V59C842.918 59 842.022 59.8954 842.022 61V110H838.022ZM916.022 55C919.336 55 922.022 57.6863 922.022 61V110H918.022V61C918.022 59.8954 917.127 59 916.022 59V55Z" fill="#4A4E53" mask="url(#path-49-inside-25_54_63)"/>
<mask id="path-51-inside-26_54_63" fill="white">
<path d="M309 20C309 17.7909 310.791 16 313 16H369C371.209 16 373 17.7909 373 20V110H309V20Z"/>
</mask>
<path d="M309 20C309 17.7909 310.791 16 313 16H369C371.209 16 373 17.7909 373 20V110H309V20Z" fill="#222426"/>
<path d="M307 20C307 16.6863 309.686 14 313 14H369C372.314 14 375 16.6863 375 20H371C371 18.8954 370.105 18 369 18H313C311.895 18 311 18.8954 311 20H307ZM373 110H309H373ZM307 110V20C307 16.6863 309.686 14 313 14V18C311.895 18 311 18.8954 311 20V110H307ZM369 14C372.314 14 375 16.6863 375 20V110H371V20C371 18.8954 370.105 18 369 18V14Z" fill="#4A4E53" mask="url(#path-51-inside-26_54_63)"/>
<mask id="path-53-inside-27_54_63" fill="white">
<path d="M890 20C890 17.7909 891.791 16 894 16H950C952.209 16 954 17.7909 954 20V110H890V20Z"/>
</mask>
<path d="M890 20C890 17.7909 891.791 16 894 16H950C952.209 16 954 17.7909 954 20V110H890V20Z" fill="#222426"/>
<path d="M888 20C888 16.6863 890.686 14 894 14H950C953.314 14 956 16.6863 956 20H952C952 18.8954 951.105 18 950 18H894C892.895 18 892 18.8954 892 20H888ZM954 110H890H954ZM888 110V20C888 16.6863 890.686 14 894 14V18C892.895 18 892 18.8954 892 20V110H888ZM950 14C953.314 14 956 16.6863 956 20V110H952V20C952 18.8954 951.105 18 950 18V14Z" fill="#4A4E53" mask="url(#path-53-inside-27_54_63)"/>
<mask id="path-55-inside-28_54_63" fill="white">
<path d="M419 69C419 66.7909 420.791 65 423 65H495C497.209 65 499 66.7909 499 69V110H419V69Z"/>
</mask>
<path d="M419 69C419 66.7909 420.791 65 423 65H495C497.209 65 499 66.7909 499 69V110H419V69Z" fill="#222426"/>
<path d="M417 69C417 65.6863 419.686 63 423 63H495C498.314 63 501 65.6863 501 69H497C497 67.8954 496.105 67 495 67H423C421.895 67 421 67.8954 421 69H417ZM499 110H419H499ZM417 110V69C417 65.6863 419.686 63 423 63V67C421.895 67 421 67.8954 421 69V110H417ZM495 63C498.314 63 501 65.6863 501 69V110H497V69C497 67.8954 496.105 67 495 67V63Z" fill="#4A4E53" mask="url(#path-55-inside-28_54_63)"/>
<mask id="path-57-inside-29_54_63" fill="white">
<path d="M1108 69C1108 66.7909 1109.79 65 1112 65H1184C1186.21 65 1188 66.7909 1188 69V110H1108V69Z"/>
</mask>
<path d="M1108 69C1108 66.7909 1109.79 65 1112 65H1184C1186.21 65 1188 66.7909 1188 69V110H1108V69Z" fill="#222426"/>
<path d="M1106 69C1106 65.6863 1108.69 63 1112 63H1184C1187.31 63 1190 65.6863 1190 69H1186C1186 67.8954 1185.1 67 1184 67H1112C1110.9 67 1110 67.8954 1110 69H1106ZM1188 110H1108H1188ZM1106 110V69C1106 65.6863 1108.69 63 1112 63V67C1110.9 67 1110 67.8954 1110 69V110H1106ZM1184 63C1187.31 63 1190 65.6863 1190 69V110H1186V69C1186 67.8954 1185.1 67 1184 67V63Z" fill="#4A4E53" mask="url(#path-57-inside-29_54_63)"/>
<mask id="path-59-inside-30_54_63" fill="white">
<path d="M596 69C596 66.7909 597.791 65 600 65H672C674.209 65 676 66.7909 676 69V110H596V69Z"/>
</mask>
<path d="M596 69C596 66.7909 597.791 65 600 65H672C674.209 65 676 66.7909 676 69V110H596V69Z" fill="#222426"/>
<path d="M594 69C594 65.6863 596.686 63 600 63H672C675.314 63 678 65.6863 678 69H674C674 67.8954 673.105 67 672 67H600C598.895 67 598 67.8954 598 69H594ZM676 110H596H676ZM594 110V69C594 65.6863 596.686 63 600 63V67C598.895 67 598 67.8954 598 69V110H594ZM672 63C675.314 63 678 65.6863 678 69V110H674V69C674 67.8954 673.105 67 672 67V63Z" fill="#4A4E53" mask="url(#path-59-inside-30_54_63)"/>
<mask id="path-61-inside-31_54_63" fill="white">
<path d="M940.989 4C940.989 1.79086 942.78 0 944.989 0H971.989C974.198 0 975.989 1.79086 975.989 4V110H940.989V4Z"/>
</mask>
<path d="M940.989 4C940.989 1.79086 942.78 0 944.989 0H971.989C974.198 0 975.989 1.79086 975.989 4V110H940.989V4Z" fill="#222426"/>
<path d="M938.989 4C938.989 0.686292 941.675 -2 944.989 -2H971.989C975.302 -2 977.989 0.686292 977.989 4H973.989C973.989 2.89543 973.093 2 971.989 2H944.989C943.884 2 942.989 2.89543 942.989 4H938.989ZM975.989 110H940.989H975.989ZM938.989 110V4C938.989 0.686292 941.675 -2 944.989 -2V2C943.884 2 942.989 2.89543 942.989 4V110H938.989ZM971.989 -2C975.302 -2 977.989 0.686292 977.989 4V110H973.989V4C973.989 2.89543 973.093 2 971.989 2V-2Z" fill="#4A4E53" mask="url(#path-61-inside-31_54_63)"/>
<mask id="path-63-inside-32_54_63" fill="white">
<path d="M1076 47C1076 44.7909 1077.79 43 1080 43H1107C1109.21 43 1111 44.7909 1111 47V110H1076V47Z"/>
</mask>
<path d="M1076 47C1076 44.7909 1077.79 43 1080 43H1107C1109.21 43 1111 44.7909 1111 47V110H1076V47Z" fill="#222426"/>
<path d="M1074 47C1074 43.6863 1076.69 41 1080 41H1107C1110.31 41 1113 43.6863 1113 47H1109C1109 45.8954 1108.1 45 1107 45H1080C1078.9 45 1078 45.8954 1078 47H1074ZM1111 110H1076H1111ZM1074 110V47C1074 43.6863 1076.69 41 1080 41V45C1078.9 45 1078 45.8954 1078 47V110H1074ZM1107 41C1110.31 41 1113 43.6863 1113 47V110H1109V47C1109 45.8954 1108.1 45 1107 45V41Z" fill="#4A4E53" mask="url(#path-63-inside-32_54_63)"/>
</svg>
