<svg width="1213" height="140" viewBox="0 0 1213 140" fill="none" xmlns="http://www.w3.org/2000/svg">
<mask id="path-1-inside-1_54_63" fill="white">
<path d="M126.034 99C126.034 96.7909 127.825 95 130.034 95H202.034C204.243 95 206.034 96.7909 206.034 99V140H126.034V99Z"/>
</mask>
<path d="M126.034 99C126.034 96.7909 127.825 95 130.034 95H202.034C204.243 95 206.034 96.7909 206.034 99V140H126.034V99Z" fill="#222426"/>
<path d="M124.034 99C124.034 95.6863 126.72 93 130.034 93H202.034C205.348 93 208.034 95.6863 208.034 99H204.034C204.034 97.8954 203.139 97 202.034 97H130.034C128.93 97 128.034 97.8954 128.034 99H124.034ZM206.034 140H126.034H206.034ZM124.034 140V99C124.034 95.6863 126.72 93 130.034 93V97C128.93 97 128.034 97.8954 128.034 99V140H124.034ZM202.034 93C205.348 93 208.034 95.6863 208.034 99V140H204.034V99C204.034 97.8954 203.139 97 202.034 97V93Z" fill="#4A4E53" mask="url(#path-1-inside-1_54_63)"/>
<mask id="path-3-inside-2_54_63" fill="white">
<path d="M774 91C774 88.7909 775.791 87 778 87H850C852.209 87 854 88.7909 854 91V140H774V91Z"/>
</mask>
<path d="M774 91C774 88.7909 775.791 87 778 87H850C852.209 87 854 88.7909 854 91V140H774V91Z" fill="#222426"/>
<path d="M772 91C772 87.6863 774.686 85 778 85H850C853.314 85 856 87.6863 856 91H852C852 89.8954 851.105 89 850 89H778C776.895 89 776 89.8954 776 91H772ZM854 140H774H854ZM772 140V91C772 87.6863 774.686 85 778 85V89C776.895 89 776 89.8954 776 91V140H772ZM850 85C853.314 85 856 87.6863 856 91V140H852V91C852 89.8954 851.105 89 850 89V85Z" fill="#4A4E53" mask="url(#path-3-inside-2_54_63)"/>
<mask id="path-5-inside-3_54_63" fill="white">
<path d="M194 91C194 88.7909 195.791 87 198 87H270C272.209 87 274 88.7909 274 91V140H194V91Z"/>
</mask>
<path d="M194 91C194 88.7909 195.791 87 198 87H270C272.209 87 274 88.7909 274 91V140H194V91Z" fill="#222426"/>
<path d="M192 91C192 87.6863 194.686 85 198 85H270C273.314 85 276 87.6863 276 91H272C272 89.8954 271.105 89 270 89H198C196.895 89 196 89.8954 196 91H192ZM274 140H194H274ZM192 140V91C192 87.6863 194.686 85 198 85V89C196.895 89 196 89.8954 196 91V140H192ZM270 85C273.314 85 276 87.6863 276 91V140H272V91C272 89.8954 271.105 89 270 89V85Z" fill="#4A4E53" mask="url(#path-5-inside-3_54_63)"/>
<mask id="path-7-inside-4_54_63" fill="white">
<path d="M0.936035 62H77.936C80.1452 62 81.936 63.7909 81.936 66V140H0.936035V62Z"/>
</mask>
<path d="M0.936035 62H77.936C80.1452 62 81.936 63.7909 81.936 66V140H0.936035V62Z" fill="#222426"/>
<path d="M0.936035 60H77.936C81.2497 60 83.936 62.6863 83.936 66H79.936C79.936 64.8954 79.0406 64 77.936 64H0.936035V60ZM81.936 140H0.936035H81.936ZM0.936035 140V62V140ZM77.936 60C81.2497 60 83.936 62.6863 83.936 66V140H79.936V66C79.936 64.8954 79.0406 64 77.936 64V60Z" fill="#4A4E53" mask="url(#path-7-inside-4_54_63)"/>
<mask id="path-9-inside-5_54_63" fill="white">
<path d="M1132 66C1132 63.7909 1133.79 62 1136 62H1213V140H1132V66Z"/>
</mask>
<path d="M1132 66C1132 63.7909 1133.79 62 1136 62H1213V140H1132V66Z" fill="#222426"/>
<path d="M1130 66C1130 62.6863 1132.69 60 1136 60H1213V64H1136C1134.9 64 1134 64.8954 1134 66H1130ZM1213 140H1132H1213ZM1130 140V66C1130 62.6863 1132.69 60 1136 60V64C1134.9 64 1134 64.8954 1134 66V140H1130ZM1213 62V140V62Z" fill="#4A4E53" mask="url(#path-9-inside-5_54_63)"/>
<mask id="path-11-inside-6_54_63" fill="white">
<path d="M999 58C999 55.7909 1000.79 54 1003 54H1076C1078.21 54 1080 55.7909 1080 58V140H999V58Z"/>
</mask>
<path d="M999 58C999 55.7909 1000.79 54 1003 54H1076C1078.21 54 1080 55.7909 1080 58V140H999V58Z" fill="#222426"/>
<path d="M997 58C997 54.6863 999.686 52 1003 52H1076C1079.31 52 1082 54.6863 1082 58H1078C1078 56.8954 1077.1 56 1076 56H1003C1001.9 56 1001 56.8954 1001 58H997ZM1080 140H999H1080ZM997 140V58C997 54.6863 999.686 52 1003 52V56C1001.9 56 1001 56.8954 1001 58V140H997ZM1076 52C1079.31 52 1082 54.6863 1082 58V140H1078V58C1078 56.8954 1077.1 56 1076 56V52Z" fill="#4A4E53" mask="url(#path-11-inside-6_54_63)"/>
<mask id="path-13-inside-7_54_63" fill="white">
<path d="M377 66C377 63.7909 378.791 62 381 62H454C456.209 62 458 63.7909 458 66V140H377V66Z"/>
</mask>
<path d="M377 66C377 63.7909 378.791 62 381 62H454C456.209 62 458 63.7909 458 66V140H377V66Z" fill="#222426"/>
<path d="M375 66C375 62.6863 377.686 60 381 60H454C457.314 60 460 62.6863 460 66H456C456 64.8954 455.105 64 454 64H381C379.895 64 379 64.8954 379 66H375ZM458 140H377H458ZM375 140V66C375 62.6863 377.686 60 381 60V64C379.895 64 379 64.8954 379 66V140H375ZM454 60C457.314 60 460 62.6863 460 66V140H456V66C456 64.8954 455.105 64 454 64V60Z" fill="#4A4E53" mask="url(#path-13-inside-7_54_63)"/>
<mask id="path-15-inside-8_54_63" fill="white">
<path d="M705 66C705 63.7909 706.791 62 709 62H782C784.209 62 786 63.7909 786 66V140H705V66Z"/>
</mask>
<path d="M705 66C705 63.7909 706.791 62 709 62H782C784.209 62 786 63.7909 786 66V140H705V66Z" fill="#222426"/>
<path d="M703 66C703 62.6863 705.686 60 709 60H782C785.314 60 788 62.6863 788 66H784C784 64.8954 783.105 64 782 64H709C707.895 64 707 64.8954 707 66H703ZM786 140H705H786ZM703 140V66C703 62.6863 705.686 60 709 60V64C707.895 64 707 64.8954 707 66V140H703ZM782 60C785.314 60 788 62.6863 788 66V140H784V66C784 64.8954 783.105 64 782 64V60Z" fill="#4A4E53" mask="url(#path-15-inside-8_54_63)"/>
<mask id="path-17-inside-9_54_63" fill="white">
<path d="M24.9785 50C24.9785 47.7909 26.7694 46 28.9785 46H95.9785C98.1877 46 99.9785 47.7909 99.9785 50V140H24.9785V50Z"/>
</mask>
<path d="M24.9785 50C24.9785 47.7909 26.7694 46 28.9785 46H95.9785C98.1877 46 99.9785 47.7909 99.9785 50V140H24.9785V50Z" fill="#222426"/>
<path d="M22.9785 50C22.9785 46.6863 25.6648 44 28.9785 44H95.9785C99.2922 44 101.979 46.6863 101.979 50H97.9785C97.9785 48.8954 97.0831 48 95.9785 48H28.9785C27.8739 48 26.9785 48.8954 26.9785 50H22.9785ZM99.9785 140H24.9785H99.9785ZM22.9785 140V50C22.9785 46.6863 25.6648 44 28.9785 44V48C27.8739 48 26.9785 48.8954 26.9785 50V140H22.9785ZM95.9785 44C99.2922 44 101.979 46.6863 101.979 50V140H97.9785V50C97.9785 48.8954 97.0831 48 95.9785 48V44Z" fill="#4A4E53" mask="url(#path-17-inside-9_54_63)"/>
<mask id="path-19-inside-10_54_63" fill="white">
<path d="M466 50C466 47.7909 467.791 46 470 46H537C539.209 46 541 47.7909 541 50V140H466V50Z"/>
</mask>
<path d="M466 50C466 47.7909 467.791 46 470 46H537C539.209 46 541 47.7909 541 50V140H466V50Z" fill="#222426"/>
<path d="M464 50C464 46.6863 466.686 44 470 44H537C540.314 44 543 46.6863 543 50H539C539 48.8954 538.105 48 537 48H470C468.895 48 468 48.8954 468 50H464ZM541 140H466H541ZM464 140V50C464 46.6863 466.686 44 470 44V48C468.895 48 468 48.8954 468 50V140H464ZM537 44C540.314 44 543 46.6863 543 50V140H539V50C539 48.8954 538.105 48 537 48V44Z" fill="#4A4E53" mask="url(#path-19-inside-10_54_63)"/>
<mask id="path-21-inside-11_54_63" fill="white">
<path d="M918 72C918 69.7909 919.791 68 922 68H1018C1020.21 68 1022 69.7909 1022 72V140H918V72Z"/>
</mask>
<path d="M918 72C918 69.7909 919.791 68 922 68H1018C1020.21 68 1022 69.7909 1022 72V140H918V72Z" fill="#222426"/>
<path d="M916 72C916 68.6863 918.686 66 922 66H1018C1021.31 66 1024 68.6863 1024 72H1020C1020 70.8954 1019.1 70 1018 70H922C920.895 70 920 70.8954 920 72H916ZM1022 140H918H1022ZM916 140V72C916 68.6863 918.686 66 922 66V70C920.895 70 920 70.8954 920 72V140H916ZM1018 66C1021.31 66 1024 68.6863 1024 72V140H1020V72C1020 70.8954 1019.1 70 1018 70V66Z" fill="#4A4E53" mask="url(#path-21-inside-11_54_63)"/>
<mask id="path-23-inside-12_54_63" fill="white">
<path d="M176.977 23C176.977 20.7909 178.768 19 180.977 19H207.977C210.186 19 211.977 20.7909 211.977 23V140H176.977V23Z"/>
</mask>
<path d="M176.977 23C176.977 20.7909 178.768 19 180.977 19H207.977C210.186 19 211.977 20.7909 211.977 23V140H176.977V23Z" fill="#222426"/>
<path d="M174.977 23C174.977 19.6863 177.664 17 180.977 17H207.977C211.291 17 213.977 19.6863 213.977 23H209.977C209.977 21.8954 209.082 21 207.977 21H180.977C179.873 21 178.977 21.8954 178.977 23H174.977ZM211.977 140H176.977H211.977ZM174.977 140V23C174.977 19.6863 177.664 17 180.977 17V21C179.873 21 178.977 21.8954 178.977 23V140H174.977ZM207.977 17C211.291 17 213.977 19.6863 213.977 23V140H209.977V23C209.977 21.8954 209.082 21 207.977 21V17Z" fill="#4A4E53" mask="url(#path-23-inside-12_54_63)"/>
<mask id="path-25-inside-13_54_63" fill="white">
<path d="M823 23C823 20.7909 824.791 19 827 19H854C856.209 19 858 20.7909 858 23V140H823V23Z"/>
</mask>
<path d="M823 23C823 20.7909 824.791 19 827 19H854C856.209 19 858 20.7909 858 23V140H823V23Z" fill="#222426"/>
<path d="M821 23C821 19.6863 823.686 17 827 17H854C857.314 17 860 19.6863 860 23H856C856 21.8954 855.105 21 854 21H827C825.895 21 825 21.8954 825 23H821ZM858 140H823H858ZM821 140V23C821 19.6863 823.686 17 827 17V21C825.895 21 825 21.8954 825 23V140H821ZM854 17C857.314 17 860 19.6863 860 23V140H856V23C856 21.8954 855.105 21 854 21V17Z" fill="#4A4E53" mask="url(#path-25-inside-13_54_63)"/>
<mask id="path-27-inside-14_54_63" fill="white">
<path d="M657.999 23C657.999 20.7909 659.79 19 661.999 19H688.999C691.208 19 692.999 20.7909 692.999 23V140H657.999V23Z"/>
</mask>
<path d="M657.999 23C657.999 20.7909 659.79 19 661.999 19H688.999C691.208 19 692.999 20.7909 692.999 23V140H657.999V23Z" fill="#222426"/>
<path d="M655.999 23C655.999 19.6863 658.685 17 661.999 17H688.999C692.312 17 694.999 19.6863 694.999 23H690.999C690.999 21.8954 690.103 21 688.999 21H661.999C660.894 21 659.999 21.8954 659.999 23H655.999ZM692.999 140H657.999H692.999ZM655.999 140V23C655.999 19.6863 658.685 17 661.999 17V21C660.894 21 659.999 21.8954 659.999 23V140H655.999ZM688.999 17C692.312 17 694.999 19.6863 694.999 23V140H690.999V23C690.999 21.8954 690.103 21 688.999 21V17Z" fill="#4A4E53" mask="url(#path-27-inside-14_54_63)"/>
<mask id="path-29-inside-15_54_63" fill="white">
<path d="M199 15C199 12.7909 200.791 11 203 11H230C232.209 11 234 12.7909 234 15V140H199V15Z"/>
</mask>
<path d="M199 15C199 12.7909 200.791 11 203 11H230C232.209 11 234 12.7909 234 15V140H199V15Z" fill="#222426"/>
<path d="M197 15C197 11.6863 199.686 9 203 9H230C233.314 9 236 11.6863 236 15H232C232 13.8954 231.105 13 230 13H203C201.895 13 201 13.8954 201 15H197ZM234 140H199H234ZM197 140V15C197 11.6863 199.686 9 203 9V13C201.895 13 201 13.8954 201 15V140H197ZM230 9C233.314 9 236 11.6863 236 15V140H232V15C232 13.8954 231.105 13 230 13V9Z" fill="#4A4E53" mask="url(#path-29-inside-15_54_63)"/>
<mask id="path-31-inside-16_54_63" fill="white">
<path d="M349 34C349 31.7909 350.791 30 353 30H380C382.209 30 384 31.7909 384 34V140H349V34Z"/>
</mask>
<path d="M349 34C349 31.7909 350.791 30 353 30H380C382.209 30 384 31.7909 384 34V140H349V34Z" fill="#222426"/>
<path d="M347 34C347 30.6863 349.686 28 353 28H380C383.314 28 386 30.6863 386 34H382C382 32.8954 381.105 32 380 32H353C351.895 32 351 32.8954 351 34H347ZM384 140H349H384ZM347 140V34C347 30.6863 349.686 28 353 28V32C351.895 32 351 32.8954 351 34V140H347ZM380 28C383.314 28 386 30.6863 386 34V140H382V34C382 32.8954 381.105 32 380 32V28Z" fill="#4A4E53" mask="url(#path-31-inside-16_54_63)"/>
<mask id="path-33-inside-17_54_63" fill="white">
<path d="M728 34C728 31.7909 729.791 30 732 30H759C761.209 30 763 31.7909 763 34V140H728V34Z"/>
</mask>
<path d="M728 34C728 31.7909 729.791 30 732 30H759C761.209 30 763 31.7909 763 34V140H728V34Z" fill="#222426"/>
<path d="M726 34C726 30.6863 728.686 28 732 28H759C762.314 28 765 30.6863 765 34H761C761 32.8954 760.105 32 759 32H732C730.895 32 730 32.8954 730 34H726ZM763 140H728H763ZM726 140V34C726 30.6863 728.686 28 732 28V32C730.895 32 730 32.8954 730 34V140H726ZM759 28C762.314 28 765 30.6863 765 34V140H761V34C761 32.8954 760.105 32 759 32V28Z" fill="#4A4E53" mask="url(#path-33-inside-17_54_63)"/>
<mask id="path-35-inside-18_54_63" fill="white">
<path d="M60.9421 76C60.9421 73.7909 62.733 72 64.9421 72H136.942C139.151 72 140.942 73.7909 140.942 76V140H60.9421V76Z"/>
</mask>
<path d="M60.9421 76C60.9421 73.7909 62.733 72 64.9421 72H136.942C139.151 72 140.942 73.7909 140.942 76V140H60.9421V76Z" fill="#222426"/>
<path d="M58.9421 76C58.9421 72.6863 61.6284 70 64.9421 70H136.942C140.256 70 142.942 72.6863 142.942 76H138.942C138.942 74.8954 138.047 74 136.942 74H64.9421C63.8376 74 62.9421 74.8954 62.9421 76H58.9421ZM140.942 140H60.9421H140.942ZM58.9421 140V76C58.9421 72.6863 61.6284 70 64.9421 70V74C63.8376 74 62.9421 74.8954 62.9421 76V140H58.9421ZM136.942 70C140.256 70 142.942 72.6863 142.942 76V140H138.942V76C138.942 74.8954 138.047 74 136.942 74V70Z" fill="#4A4E53" mask="url(#path-35-inside-18_54_63)"/>
<mask id="path-37-inside-19_54_63" fill="white">
<path d="M1049.01 111C1049.01 108.791 1050.8 107 1053.01 107H1125.01C1127.21 107 1129.01 108.791 1129.01 111V140H1049.01V111Z"/>
</mask>
<path d="M1049.01 111C1049.01 108.791 1050.8 107 1053.01 107H1125.01C1127.21 107 1129.01 108.791 1129.01 111V140H1049.01V111Z" fill="#222426"/>
<path d="M1047.01 111C1047.01 107.686 1049.69 105 1053.01 105H1125.01C1128.32 105 1131.01 107.686 1131.01 111H1127.01C1127.01 109.895 1126.11 109 1125.01 109H1053.01C1051.9 109 1051.01 109.895 1051.01 111H1047.01ZM1129.01 140H1049.01H1129.01ZM1047.01 140V111C1047.01 107.686 1049.69 105 1053.01 105V109C1051.9 109 1051.01 109.895 1051.01 111V140H1047.01ZM1125.01 105C1128.32 105 1131.01 107.686 1131.01 111V140H1127.01V111C1127.01 109.895 1126.11 109 1125.01 109V105Z" fill="#4A4E53" mask="url(#path-37-inside-19_54_63)"/>
<mask id="path-39-inside-20_54_63" fill="white">
<path d="M491.964 76C491.964 73.7909 493.754 72 495.964 72H567.964C570.173 72 571.964 73.7909 571.964 76V140H491.964V76Z"/>
</mask>
<path d="M491.964 76C491.964 73.7909 493.754 72 495.964 72H567.964C570.173 72 571.964 73.7909 571.964 76V140H491.964V76Z" fill="#222426"/>
<path d="M489.964 76C489.964 72.6863 492.65 70 495.964 70H567.964C571.277 70 573.964 72.6863 573.964 76H569.964C569.964 74.8954 569.068 74 567.964 74H495.964C494.859 74 493.964 74.8954 493.964 76H489.964ZM571.964 140H491.964H571.964ZM489.964 140V76C489.964 72.6863 492.65 70 495.964 70V74C494.859 74 493.964 74.8954 493.964 76V140H489.964ZM567.964 70C571.277 70 573.964 72.6863 573.964 76V140H569.964V76C569.964 74.8954 569.068 74 567.964 74V70Z" fill="#4A4E53" mask="url(#path-39-inside-20_54_63)"/>
<mask id="path-41-inside-21_54_63" fill="white">
<path d="M266 61C266 58.7909 267.791 57 270 57H321C323.209 57 325 58.7909 325 61V140H266V61Z"/>
</mask>
<path d="M266 61C266 58.7909 267.791 57 270 57H321C323.209 57 325 58.7909 325 61V140H266V61Z" fill="#222426"/>
<path d="M264 61C264 57.6863 266.686 55 270 55H321C324.314 55 327 57.6863 327 61H323C323 59.8954 322.105 59 321 59H270C268.895 59 268 59.8954 268 61H264ZM325 140H266H325ZM264 140V61C264 57.6863 266.686 55 270 55V59C268.895 59 268 59.8954 268 61V140H264ZM321 55C324.314 55 327 57.6863 327 61V140H323V61C323 59.8954 322.105 59 321 59V55Z" fill="#4A4E53" mask="url(#path-41-inside-21_54_63)"/>
<mask id="path-43-inside-22_54_63" fill="white">
<path d="M562 61C562 58.7909 563.791 57 566 57H617C619.209 57 621 58.7909 621 61V140H562V61Z"/>
</mask>
<path d="M562 61C562 58.7909 563.791 57 566 57H617C619.209 57 621 58.7909 621 61V140H562V61Z" fill="#222426"/>
<path d="M560 61C560 57.6863 562.686 55 566 55H617C620.314 55 623 57.6863 623 61H619C619 59.8954 618.105 59 617 59H566C564.895 59 564 59.8954 564 61H560ZM621 140H562H621ZM560 140V61C560 57.6863 562.686 55 566 55V59C564.895 59 564 59.8954 564 61V140H560ZM617 55C620.314 55 623 57.6863 623 61V140H619V61C619 59.8954 618.105 59 617 59V55Z" fill="#4A4E53" mask="url(#path-43-inside-22_54_63)"/>
<mask id="path-45-inside-23_54_63" fill="white">
<path d="M687.021 61C687.021 58.7909 688.812 57 691.021 57H742.021C744.231 57 746.021 58.7909 746.021 61V140H687.021V61Z"/>
</mask>
<path d="M687.021 61C687.021 58.7909 688.812 57 691.021 57H742.021C744.231 57 746.021 58.7909 746.021 61V140H687.021V61Z" fill="#222426"/>
<path d="M685.021 61C685.021 57.6863 687.708 55 691.021 55H742.021C745.335 55 748.021 57.6863 748.021 61H744.021C744.021 59.8954 743.126 59 742.021 59H691.021C689.917 59 689.021 59.8954 689.021 61H685.021ZM746.021 140H687.021H746.021ZM685.021 140V61C685.021 57.6863 687.708 55 691.021 55V59C689.917 59 689.021 59.8954 689.021 61V140H685.021ZM742.021 55C745.335 55 748.021 57.6863 748.021 61V140H744.021V61C744.021 59.8954 743.126 59 742.021 59V55Z" fill="#4A4E53" mask="url(#path-45-inside-23_54_63)"/>
<mask id="path-47-inside-24_54_63" fill="white">
<path d="M194 91C194 88.7909 195.791 87 198 87H270C272.209 87 274 88.7909 274 91V140H194V91Z"/>
</mask>
<path d="M194 91C194 88.7909 195.791 87 198 87H270C272.209 87 274 88.7909 274 91V140H194V91Z" fill="#222426"/>
<path d="M192 91C192 87.6863 194.686 85 198 85H270C273.314 85 276 87.6863 276 91H272C272 89.8954 271.105 89 270 89H198C196.895 89 196 89.8954 196 91H192ZM274 140H194H274ZM192 140V91C192 87.6863 194.686 85 198 85V89C196.895 89 196 89.8954 196 91V140H192ZM270 85C273.314 85 276 87.6863 276 91V140H272V91C272 89.8954 271.105 89 270 89V85Z" fill="#4A4E53" mask="url(#path-47-inside-24_54_63)"/>
<mask id="path-49-inside-25_54_63" fill="white">
<path d="M840.022 91C840.022 88.7909 841.813 87 844.022 87H916.022C918.232 87 920.022 88.7909 920.022 91V140H840.022V91Z"/>
</mask>
<path d="M840.022 91C840.022 88.7909 841.813 87 844.022 87H916.022C918.232 87 920.022 88.7909 920.022 91V140H840.022V91Z" fill="#222426"/>
<path d="M838.022 91C838.022 87.6863 840.709 85 844.022 85H916.022C919.336 85 922.022 87.6863 922.022 91H918.022C918.022 89.8954 917.127 89 916.022 89H844.022C842.918 89 842.022 89.8954 842.022 91H838.022ZM920.022 140H840.022H920.022ZM838.022 140V91C838.022 87.6863 840.709 85 844.022 85V89C842.918 89 842.022 89.8954 842.022 91V140H838.022ZM916.022 85C919.336 85 922.022 87.6863 922.022 91V140H918.022V91C918.022 89.8954 917.127 89 916.022 89V85Z" fill="#4A4E53" mask="url(#path-49-inside-25_54_63)"/>
<mask id="path-51-inside-26_54_63" fill="white">
<path d="M309 50C309 47.7909 310.791 46 313 46H369C371.209 46 373 47.7909 373 50V140H309V50Z"/>
</mask>
<path d="M309 50C309 47.7909 310.791 46 313 46H369C371.209 46 373 47.7909 373 50V140H309V50Z" fill="#222426"/>
<path d="M307 50C307 46.6863 309.686 44 313 44H369C372.314 44 375 46.6863 375 50H371C371 48.8954 370.105 48 369 48H313C311.895 48 311 48.8954 311 50H307ZM373 140H309H373ZM307 140V50C307 46.6863 309.686 44 313 44V48C311.895 48 311 48.8954 311 50V140H307ZM369 44C372.314 44 375 46.6863 375 50V140H371V50C371 48.8954 370.105 48 369 48V44Z" fill="#4A4E53" mask="url(#path-51-inside-26_54_63)"/>
<mask id="path-53-inside-27_54_63" fill="white">
<path d="M890 50C890 47.7909 891.791 46 894 46H950C952.209 46 954 47.7909 954 50V140H890V50Z"/>
</mask>
<path d="M890 50C890 47.7909 891.791 46 894 46H950C952.209 46 954 47.7909 954 50V140H890V50Z" fill="#222426"/>
<path d="M888 50C888 46.6863 890.686 44 894 44H950C953.314 44 956 46.6863 956 50H952C952 48.8954 951.105 48 950 48H894C892.895 48 892 48.8954 892 50H888ZM954 140H890H954ZM888 140V50C888 46.6863 890.686 44 894 44V48C892.895 48 892 48.8954 892 50V140H888ZM950 44C953.314 44 956 46.6863 956 50V140H952V50C952 48.8954 951.105 48 950 48V44Z" fill="#4A4E53" mask="url(#path-53-inside-27_54_63)"/>
<mask id="path-55-inside-28_54_63" fill="white">
<path d="M419 99C419 96.7909 420.791 95 423 95H495C497.209 95 499 96.7909 499 99V140H419V99Z"/>
</mask>
<path d="M419 99C419 96.7909 420.791 95 423 95H495C497.209 95 499 96.7909 499 99V140H419V99Z" fill="#222426"/>
<path d="M417 99C417 95.6863 419.686 93 423 93H495C498.314 93 501 95.6863 501 99H497C497 97.8954 496.105 97 495 97H423C421.895 97 421 97.8954 421 99H417ZM499 140H419H499ZM417 140V99C417 95.6863 419.686 93 423 93V97C421.895 97 421 97.8954 421 99V140H417ZM495 93C498.314 93 501 95.6863 501 99V140H497V99C497 97.8954 496.105 97 495 97V93Z" fill="#4A4E53" mask="url(#path-55-inside-28_54_63)"/>
<mask id="path-57-inside-29_54_63" fill="white">
<path d="M1108 99C1108 96.7909 1109.79 95 1112 95H1184C1186.21 95 1188 96.7909 1188 99V140H1108V99Z"/>
</mask>
<path d="M1108 99C1108 96.7909 1109.79 95 1112 95H1184C1186.21 95 1188 96.7909 1188 99V140H1108V99Z" fill="#222426"/>
<path d="M1106 99C1106 95.6863 1108.69 93 1112 93H1184C1187.31 93 1190 95.6863 1190 99H1186C1186 97.8954 1185.1 97 1184 97H1112C1110.9 97 1110 97.8954 1110 99H1106ZM1188 140H1108H1188ZM1106 140V99C1106 95.6863 1108.69 93 1112 93V97C1110.9 97 1110 97.8954 1110 99V140H1106ZM1184 93C1187.31 93 1190 95.6863 1190 99V140H1186V99C1186 97.8954 1185.1 97 1184 97V93Z" fill="#4A4E53" mask="url(#path-57-inside-29_54_63)"/>
<mask id="path-59-inside-30_54_63" fill="white">
<path d="M596 99C596 96.7909 597.791 95 600 95H672C674.209 95 676 96.7909 676 99V140H596V99Z"/>
</mask>
<path d="M596 99C596 96.7909 597.791 95 600 95H672C674.209 95 676 96.7909 676 99V140H596V99Z" fill="#222426"/>
<path d="M594 99C594 95.6863 596.686 93 600 93H672C675.314 93 678 95.6863 678 99H674C674 97.8954 673.105 97 672 97H600C598.895 97 598 97.8954 598 99H594ZM676 140H596H676ZM594 140V99C594 95.6863 596.686 93 600 93V97C598.895 97 598 97.8954 598 99V140H594ZM672 93C675.314 93 678 95.6863 678 99V140H674V99C674 97.8954 673.105 97 672 97V93Z" fill="#4A4E53" mask="url(#path-59-inside-30_54_63)"/>
<mask id="path-61-inside-31_54_63" fill="white">
<path d="M941 4C941 1.79086 942.791 0 945 0H972C974.209 0 976 1.79086 976 4V140H941V4Z"/>
</mask>
<path d="M941 4C941 1.79086 942.791 0 945 0H972C974.209 0 976 1.79086 976 4V140H941V4Z" fill="#222426"/>
<path d="M939 4C939 0.686292 941.686 -2 945 -2H972C975.314 -2 978 0.686292 978 4H974C974 2.89543 973.105 2 972 2H945C943.895 2 943 2.89543 943 4H939ZM976 140H941H976ZM939 140V4C939 0.686292 941.686 -2 945 -2V2C943.895 2 943 2.89543 943 4V140H939ZM972 -2C975.314 -2 978 0.686292 978 4V140H974V4C974 2.89543 973.105 2 972 2V-2Z" fill="#4A4E53" mask="url(#path-61-inside-31_54_63)"/>
<mask id="path-63-inside-32_54_63" fill="white">
<path d="M1076 77C1076 74.7909 1077.79 73 1080 73H1107C1109.21 73 1111 74.7909 1111 77V140H1076V77Z"/>
</mask>
<path d="M1076 77C1076 74.7909 1077.79 73 1080 73H1107C1109.21 73 1111 74.7909 1111 77V140H1076V77Z" fill="#222426"/>
<path d="M1074 77C1074 73.6863 1076.69 71 1080 71H1107C1110.31 71 1113 73.6863 1113 77H1109C1109 75.8954 1108.1 75 1107 75H1080C1078.9 75 1078 75.8954 1078 77H1074ZM1111 140H1076H1111ZM1074 140V77C1074 73.6863 1076.69 71 1080 71V75C1078.9 75 1078 75.8954 1078 77V140H1074ZM1107 71C1110.31 71 1113 73.6863 1113 77V140H1109V77C1109 75.8954 1108.1 75 1107 75V71Z" fill="#4A4E53" mask="url(#path-63-inside-32_54_63)"/>
</svg>
