<svg xmlns="http://www.w3.org/2000/svg" viewBox="0 0 193.83 322.14"><defs><style>.cls-1,.cls-2{fill:#fbd259;}.cls-1{fill-opacity:0.4;}.cls-3{fill:#222426;fill-rule:evenodd;}</style></defs><g id="spotlight"><path class="cls-1" d="M167.38,137.91l-129-74.5L0,322.78H52.48Z" transform="translate(0 -0.64)"/><circle class="cls-2" cx="115.27" cy="78.56" r="78.56"/></g><g id="document"><path class="cls-3" d="M131,25.86l26.9,26.82v52.38a18.45,18.45,0,0,1-24.72,25.76H90.1a14.06,14.06,0,0,1-14-14v-77a14.05,14.05,0,0,1,14-14Zm21.05,73.28A18.44,18.44,0,0,0,126.9,125H90.1a8.13,8.13,0,0,1-8.19-8.17v-77a8.13,8.13,0,0,1,8.19-8.16h36.37l.47,9.45a16.84,16.84,0,0,0,17,16.79h8.19Zm-8.18-47h5.26L132.55,35.54l.24,5.48A11.17,11.17,0,0,0,143.9,52.1ZM135,115.21a1.68,1.68,0,1,0-2.36,2.38l5,5a1.67,1.67,0,0,0,2.36,0h0l10.9-10.9a1.67,1.67,0,0,0-2.36-2.36l-9.71,9.71Z" transform="translate(0 -0.64)"/></g></svg>